# xmcd
#
# Track frame offsets: 
#        150
#        17415
#        34320
#        51554
#        67659
#        82479
#        100006
#        119806
#        151135
#        173144
#        198944
#        217574
#        236069
#        253199
#        268349
#
# Disc length: 3896 seconds
#
# Revision: 1
# Processed by: cddbd v1.5.2PL0 Copyright (c) Steve Scherf et al.
# Submitted via: ExactAudioCopy v0.99pb5
#
DISCID=d20f360f
DTITLE=Various Artist - Best of Scottish Fiddle
DYEAR=2007
DGENRE=Celtic
TTITLE0=Old Blind Dogs and Jonny Hardie - The Buzzard
TTITLE1=Ross Kennedy and Archie McAllister - The Auld Wheel Set
TTITLE2=Jonny Hardie and Gavin Marwick feat. Davy Cattanach - The Hills 
TTITLE2=of Glenorchy
TTITLE3=Archie McAllister and JCB feat. Jerry Holland - Jigs: The Heathe
TTITLE3=r Ale Set
TTITLE4=The Iron Horse and Gavin Marwick - The Sleeping Warrior
TTITLE5=Ross Kennedy and Archie McAllister - The Gathering Storms
TTITLE6=Jonny Hardie and Gavin Marwick - The Quiet Man
TTITLE7=The Iron Horse and Gavin Warwick - The Emigrant
TTITLE8=Jonny Hardie and Gavin Marwick feat. Davy Cattanach - The MacNel
TTITLE8=lis of Ugadale
TTITLE9=The Hudson Swan Band - The Fledgling
TTITLE10=Coila, Alistair McCulloch, Andrew McGarva and William Weir - Ji
TTITLE10=gs
TTITLE11=Old Blind Dogs and Jonny Hardie - Margaret Crormar
TTITLE12=Ross Kennedy and Archie McAllister - The Doctors Reel
TTITLE13=Coila, Alistair McCulloch, Andrew McGarva and William Weir - Fa
TTITLE13=rewell
TTITLE14=Jonny Hardie and Gavin Marwick feat. Davy Cattanach - Rob Roy M
TTITLE14=acGregor
EXTD=
EXTT0=
EXTT1=
EXTT2=
EXTT3=
EXTT4=
EXTT5=
EXTT6=
EXTT7=
EXTT8=
EXTT9=
EXTT10=
EXTT11=
EXTT12=
EXTT13=
EXTT14=
PLAYORDER=
